# xmcd
#
# Track frame offsets:
#	150
#	16576
#	41510
#	62766
#	89275
#	113347
#	128405
#	164974
#
# Disc length: 2449 seconds
#
# Revision: 1
# Processed by: cddbd v1.4b42PL1 Copyright (c) Steve Scherf et al.
# Submitted via: CDmax 1.8
#
DISCID=58098f08
DTITLE=David Kolker - Tuesday
DYEAR=1900
DGENRE=
TTITLE0=Recognition
TTITLE1=You Say
TTITLE2=Penny Song
TTITLE3=Girl, I Miss You
TTITLE4=Soul on Fire
TTITLE5=Mystery Van
TTITLE6=Two Sides, Same Coin
TTITLE7=Fallen Angel
EXTD=
EXTT0=
EXTT1=
EXTT2=
EXTT3=
EXTT4=
EXTT5=
EXTT6=
EXTT7=
PLAYORDER=
